<?xml version="1.0" encoding="iso-8859-1"?>
<!-- Generator: Adobe Illustrator 20.1.0, SVG Export Plug-In . SVG Version: 6.00 Build 0)  -->
<svg xmlns="http://www.w3.org/2000/svg" xmlns:xlink="http://www.w3.org/1999/xlink" version="1.1" id="&#1057;&#1083;&#1086;&#1081;_1" x="0px" y="0px" viewBox="0 0 64 64" style="enable-background:new 0 0 64 64;" xml:space="preserve">
<linearGradient id="SVGID_1__48153" gradientUnits="userSpaceOnUse" x1="32" y1="5.625" x2="32" y2="58.6499" spreadMethod="reflect">
	<stop offset="0" style="stop-color:#1A6DFF"/>
	<stop offset="1" style="stop-color:#C822FF"/>
</linearGradient>
<path style="fill:url(#SVGID_1__48153);" d="M50,15h-5V9c0-1.654-1.346-3-3-3h-8c-1.654,0-3,1.346-3,3v6H14c-1.654,0-3,1.346-3,3v32v1v4  c0,1.654,1.345,3,3,3h36c1.654,0,3-1.346,3-3v-4V18C53,16.346,51.654,15,50,15z M41.486,38.686c-2.318-0.905-4.655-0.905-6.972,0  l-1.052-1.404c3.045-1.702,6.032-1.702,9.077,0L41.486,38.686z M40.226,40.366l-1.422,1.897c-0.383,0.51-1.225,0.51-1.607,0  l-1.422-1.897C37.263,39.894,38.737,39.894,40.226,40.366z M39,17v17.049c-1-0.067-1-0.067-2,0V17H39z M41,34.455V17h2v18.259  C42,34.922,42,34.657,41,34.455z M33,15v-2h10v2H33z M35,17v17.455c-1,0.202-1,0.467-2,0.804V17H35z M35.597,43.462  c0.572,0.765,1.448,1.202,2.403,1.202s1.831-0.438,2.403-1.202L45,37.333V21h2v27H17V21h14v16.333L35.597,43.462z M34,8h8  c0.552,0,1,0.448,1,1v2H33V9C33,8.448,33.448,8,34,8z M50,56H14c-0.552,0-1-0.448-1-1v-1.185C13,53.928,13.647,54,14,54h36  c0.352,0,1-0.072,1-0.184V55C51,55.552,50.551,56,50,56z M50,52H14c-0.552,0-1-0.448-1-1v-1V18c0-0.552,0.448-1,1-1h17v2H17  c-1.103,0-2,0.897-2,2v27c0,1.103,0.897,2,2,2h30c1.103,0,2-0.897,2-2V21c0-1.103-0.898-2-2-2h-2v-2h5c0.552,0,1,0.448,1,1v33  C51,51.552,50.551,52,50,52z"/>
<linearGradient id="SVGID_2__48153" gradientUnits="userSpaceOnUse" x1="22.9998" y1="22.5" x2="22.9998" y2="31.3921" spreadMethod="reflect">
	<stop offset="0" style="stop-color:#6DC7FF"/>
	<stop offset="1" style="stop-color:#E6ABFF"/>
</linearGradient>
<path style="fill:url(#SVGID_2__48153);" d="M19,31v-7c0-0.552,0.447-1,1-1h7L19,31z"/>
</svg>
