<svg width="27" height="31" viewBox="0 0 27 31" fill="none" xmlns="http://www.w3.org/2000/svg">
<path d="M14.5 24.7334C20.8513 24.7334 26 19.5847 26 13.2334C26 6.88212 20.8513 1.7334 14.5 1.7334C8.14873 1.7334 3 6.88212 3 13.2334C3 19.5847 8.14873 24.7334 14.5 24.7334Z" fill="#0261F0"/>
<path d="M11.0868 13C10.2186 13 9.5332 13.7808 9.5332 14.7333C9.5332 15.6859 10.2338 16.4667 11.0868 16.4667C11.955 16.4667 12.6404 15.6859 12.6404 14.7333C12.6556 13.7808 11.955 13 11.0868 13ZM16.6463 13C15.7781 13 15.0927 13.7808 15.0927 14.7333C15.0927 15.6859 15.7933 16.4667 16.6463 16.4667C17.5145 16.4667 18.1999 15.6859 18.1999 14.7333C18.1999 13.7808 17.5145 13 16.6463 13Z" fill="white"/>
<path d="M23.7194 0H3.1472C1.4124 0 0 1.3953 0 3.1243V23.6297C0 25.3587 1.4124 26.754 3.1472 26.754H20.5568L19.7432 23.9482L21.7083 25.753L23.5659 27.4517L26.8667 30.3333V3.1243C26.8667 1.3953 25.4542 0 23.7194 0ZM17.7934 19.8077C17.7934 19.8077 17.2407 19.1555 16.7802 18.5792C18.7913 18.018 19.5589 16.7743 19.5589 16.7743C18.9295 17.1838 18.3307 17.472 17.7934 17.6692C17.0258 17.9877 16.2889 18.2 15.5673 18.3213C14.0935 18.5943 12.7425 18.5185 11.591 18.3062C10.716 18.1393 9.9637 17.8967 9.3342 17.654C8.9811 17.5175 8.5973 17.3507 8.2135 17.1383C8.1675 17.108 8.1214 17.0928 8.0754 17.0625C8.0446 17.0473 8.0293 17.0322 8.0139 17.017C7.7376 16.8653 7.5841 16.7592 7.5841 16.7592C7.5841 16.7592 8.321 17.9725 10.2707 18.5488C9.8102 19.1252 9.2421 19.8077 9.2421 19.8077C5.8493 19.7015 4.5597 17.5023 4.5597 17.5023C4.5597 12.6187 6.7704 8.6602 6.7704 8.6602C8.9811 7.0222 11.0844 7.0677 11.0844 7.0677L11.2379 7.2497C8.4745 8.0383 7.2003 9.2365 7.2003 9.2365C7.2003 9.2365 7.538 9.0545 8.1061 8.7967C9.7488 8.0838 11.0537 7.8867 11.591 7.8412C11.6832 7.826 11.7599 7.8108 11.852 7.8108C12.7885 7.6895 13.8478 7.6592 14.9532 7.7805C16.4117 7.9473 17.9776 8.372 19.5743 9.2365C19.5743 9.2365 18.3614 8.099 15.7515 7.3103L15.9665 7.0677C15.9665 7.0677 18.0698 7.0222 20.2805 8.6602C20.2805 8.6602 22.4912 12.6187 22.4912 17.5023C22.4912 17.5023 21.1863 19.7015 17.7934 19.8077Z" fill="white"/>
</svg>
