<?xml version="1.0" encoding="iso-8859-1"?>
<!-- Generator: Adobe Illustrator 20.1.0, SVG Export Plug-In . SVG Version: 6.00 Build 0)  -->
<svg xmlns="http://www.w3.org/2000/svg" xmlns:xlink="http://www.w3.org/1999/xlink" version="1.1" id="&#1057;&#1083;&#1086;&#1081;_1" x="0px" y="0px" viewBox="0 0 64 64" style="enable-background:new 0 0 64 64;" xml:space="preserve">
<linearGradient id="SVGID_1__48335" gradientUnits="userSpaceOnUse" x1="32" y1="9.0013" x2="32" y2="53.0723" spreadMethod="reflect">
	<stop offset="0" style="stop-color:#1A6DFF"/>
	<stop offset="1" style="stop-color:#C822FF"/>
</linearGradient>
<path style="fill:url(#SVGID_1__48335);" d="M34,53h-9.55c-4.943,0-9.785-2.041-13.285-5.601c-3.408-3.466-5.242-7.978-5.163-12.705  C6.166,24.938,14.24,17,24,17h16v-5.993c0-0.776,0.432-1.468,1.128-1.806c0.689-0.332,1.492-0.246,2.095,0.227l13.244,10.408  C57.442,20.602,58,21.755,58,23s-0.559,2.398-1.533,3.164L43.223,36.572c-0.602,0.474-1.403,0.561-2.095,0.227  C40.432,36.461,40,35.77,40,34.993V29H24c-1.722,0-3.363,0.744-4.506,2.042c-1.155,1.314-1.668,3.002-1.442,4.752  C18.433,38.762,21.095,41,24.244,41H34c1.654,0,3,1.346,3,3v6C37,51.654,35.655,53,34,53z M24,19  c-8.676,0-15.853,7.056-15.998,15.728c-0.07,4.188,1.56,8.189,4.589,11.27C15.717,49.177,20.04,51,24.45,51H34c0.552,0,1-0.448,1-1  v-6c0-0.552-0.448-1-1-1h-9.756c-4.152,0-7.668-2.988-8.177-6.951c-0.295-2.295,0.407-4.602,1.926-6.327  C19.515,27.992,21.704,27,24,27h18v7.993l13.231-10.401C55.72,24.208,56,23.628,56,23s-0.28-1.208-0.769-1.592L41.987,11L42,19H24z"/>
<linearGradient id="SVGID_2__48335" gradientUnits="userSpaceOnUse" x1="31.2976" y1="17.8333" x2="31.2976" y2="50.0004" spreadMethod="reflect">
	<stop offset="0" style="stop-color:#6DC7FF"/>
	<stop offset="1" style="stop-color:#E6ABFF"/>
</linearGradient>
<path style="fill:url(#SVGID_2__48335);" d="M50.721,21.381l-3.576-2.614c-0.444-0.307-0.972-0.351-1.406-0.122  C45.276,18.888,45,19.392,45,19.993V22H24c-7.168,0-13,5.832-13,13s5.832,13,13,13h9v-2h-9c-6.065,0-11-4.935-11-11s4.935-11,11-11  h21v2.007c0,0.616,0.265,1.109,0.726,1.352c0.18,0.095,0.374,0.141,0.573,0.141c0.275,0,0.559-0.09,0.814-0.266l3.647-2.599  c0.53-0.365,0.834-0.943,0.834-1.585C51.595,22.382,51.26,21.752,50.721,21.381z"/>
</svg>
