<svg width="30" height="30" fill='#fff' style="background: #3161ef;" viewBox="0 0 30 30" xmlns="http://www.w3.org/2000/svg">
<path d="M18.141 20.1193C17.469 20.7913 16.0291 21.0312 15.003 21.0312C13.974 21.0312 12.537 20.7913 11.865 20.1193C11.706 19.9602 11.451 19.9602 11.2922 20.1193C11.1331 20.2784 11.1331 20.5334 11.2922 20.6922C12.3571 21.7572 14.4031 21.8412 15.003 21.8412C15.6029 21.8412 17.6459 21.7572 18.7141 20.6922C18.87 20.5331 18.87 20.2781 18.7141 20.1193C18.555 19.9602 18.3001 19.9602 18.141 20.1193Z"/>
<path d="M13.1251 16.563C13.1251 15.702 12.4231 15 11.5621 15C10.7012 15 9.99902 15.702 9.99902 16.563C9.99902 17.4239 10.7012 18.1261 11.5621 18.1261C12.4231 18.1261 13.1251 17.4241 13.1251 16.563Z"/>
<path d="M15 0C6.717 0 0 6.717 0 15C0 23.283 6.717 30 15 30C23.283 30 30 23.283 30 15C30 6.717 23.283 0 15 0ZM23.703 17.0009C23.736 17.2169 23.754 17.436 23.754 17.658C23.754 21.0239 19.836 23.7511 15.003 23.7511C10.1699 23.7511 6.25191 21.0239 6.25191 17.658C6.25191 17.433 6.26999 17.211 6.30295 16.9949C5.541 16.653 5.00999 15.8881 5.00999 15C5.00999 13.794 5.98801 12.813 7.19696 12.813C7.78496 12.813 8.31596 13.044 8.70895 13.4221C10.2269 12.3271 12.3271 11.6279 14.664 11.5679C14.664 11.5379 15.756 6.33591 15.756 6.33591C15.7771 6.23405 15.837 6.14685 15.924 6.09009C16.011 6.0331 16.116 6.01501 16.2181 6.03607L19.8541 6.80992C20.1091 6.29402 20.6339 5.93697 21.2489 5.93697C22.113 5.93697 22.812 6.63597 22.812 7.5C22.812 8.36403 22.113 9.06303 21.2489 9.06303C20.4119 9.06303 19.734 8.40294 19.6951 7.57507L16.4399 6.88202L15.444 11.5711C17.739 11.6519 19.8001 12.3479 21.294 13.428C21.687 13.0472 22.221 12.813 22.812 12.813C24.0211 12.813 24.9989 13.791 24.9989 15C24.9989 15.894 24.462 16.6589 23.703 17.0009Z"/>
<path d="M18.438 15C17.577 15 16.875 15.702 16.875 16.563C16.875 17.4239 17.577 18.1261 18.438 18.1261C19.2989 18.1261 20.0011 17.4239 20.0011 16.563C20.0011 15.702 19.2991 15 18.438 15Z"/>
</svg>