<svg width="30" height="30" viewBox="0 0 30 30" fill="none" xmlns="http://www.w3.org/2000/svg">
<path d="M14.9999 0C23.2847 0 30 6.71625 30 15.0001C30 23.2848 23.2847 30 14.9999 30C6.71522 30 0 23.2847 0 15.0001C0 6.71625 6.71532 0 14.9999 0Z" fill="white"/>
<path d="M24.3777 10.1056C23.7225 10.3886 23.0173 10.579 22.2777 10.6653C23.0334 10.2255 23.6128 9.53083 23.8856 8.70122C23.1787 9.10902 22.3968 9.40437 21.5634 9.56275C20.8968 8.87371 19.9471 8.44336 18.8953 8.44336C16.8778 8.44336 15.2409 10.0306 15.2409 11.9899C15.2409 12.2683 15.2729 12.5393 15.3356 12.799C12.2981 12.6509 9.60371 11.238 7.80187 9.09213C7.48685 9.6162 7.30684 10.2246 7.30684 10.8752C7.30684 12.1052 7.9518 13.1927 8.93248 13.8275C8.33252 13.8087 7.76994 13.6502 7.27595 13.3831V13.4281C7.27595 15.1475 8.53591 16.5809 10.2084 16.9072C9.90183 16.9878 9.5793 17.0319 9.24554 17.0319C9.01023 17.0319 8.78151 17.0104 8.55836 16.9681C9.02331 18.3781 10.3734 19.4037 11.9737 19.4319C10.7222 20.3844 9.14617 20.9507 7.4334 20.9507C7.13806 20.9507 6.84745 20.9338 6.56055 20.901C8.1796 21.9079 10.0997 22.4957 12.1649 22.4957C18.8887 22.4957 22.5656 17.0882 22.5656 12.4007L22.5553 11.9413C23.2677 11.4424 23.8874 10.8181 24.3777 10.1056Z" fill="#0261F0"/>
</svg>
